# 3ds Max Wavefront OBJ Exporter v0.97b - (c)2007 guruware
# File Created: 30.10.2015 15:54:59

mtllib EX1.mtl

#
# object Cylinder006
#

v  0.0002 -0.0000 11.4096
v  -16.6034 -16.6033 -11.4096
v  16.6033 -16.6033 -11.4096
v  16.6033 16.6033 -11.4096
v  -16.6034 16.6033 -11.4096
v  15.0166 0.5494 -9.2287
v  14.7729 2.4488 -8.8938
v  -14.7728 2.4488 -8.8938
v  -15.0165 0.5494 -9.2287
v  14.0712 4.1192 -7.9294
v  -14.0711 4.1192 -7.9294
v  12.9962 5.3590 -6.4519
v  -12.9961 5.3590 -6.4519
v  11.6774 6.0186 -4.6395
v  -11.6773 6.0186 -4.6395
v  10.2741 6.0186 -2.7107
v  -10.2739 6.0186 -2.7107
v  8.9554 5.3590 -0.8983
v  -8.9552 5.3590 -0.8983
v  7.8804 4.1192 0.5792
v  -7.8801 4.1192 0.5792
v  7.1787 2.4488 1.5436
v  -7.1784 2.4488 1.5436
v  6.9350 0.5494 1.8785
v  -6.9347 0.5494 1.8785
v  7.1787 -1.3501 1.5436
v  -7.1784 -1.3501 1.5436
v  7.8804 -3.0204 0.5792
v  -7.8801 -3.0204 0.5792
v  8.9554 -4.2602 -0.8983
v  -8.9552 -4.2602 -0.8983
v  10.2741 -4.9199 -2.7107
v  -10.2739 -4.9199 -2.7107
v  11.6774 -4.9199 -4.6395
v  -11.6773 -4.9199 -4.6395
v  12.9962 -4.2602 -6.4519
v  -12.9961 -4.2602 -6.4519
v  14.0712 -3.0204 -7.9294
v  -14.0711 -3.0204 -7.9294
v  14.7729 -1.3501 -8.8938
v  -14.7728 -1.3501 -8.8938
# 41 vertices

vn -0.0000 -0.0000 1.0000
vn -0.0000 -0.8086 0.5883
vn -0.0000 0.8086 0.5883
vn 0.0000 0.0000 -1.0000
vn -0.0000 0.0000 1.0000
vn -0.0000 -0.3405 0.9402
vn -0.0000 -0.6404 0.7680
vn -0.0000 -0.8640 0.5036
vn -0.0000 -0.9840 0.1783
vn 0.0000 -0.9856 -0.1690
vn 0.0000 -0.8681 -0.4964
vn 0.0000 -0.6451 -0.7641
vn 0.0000 -0.3435 -0.9391
vn 0.0000 -0.0000 -1.0000
vn 0.0000 0.3435 -0.9391
vn 0.0000 0.6451 -0.7641
vn 0.0000 0.8681 -0.4964
vn 0.0000 0.9856 -0.1690
vn -0.0000 0.9840 0.1783
vn -0.0000 0.8640 0.5036
vn -0.0000 0.6404 0.7680
vn -0.0000 0.3405 0.9402
vn 0.9991 -0.0000 0.0429
vn 0.9991 0.0000 0.0429
vn -0.9991 -0.0000 0.0429
vn -0.9991 0.0000 0.0429
# 26 vertex normals

vt 0.5000 1.0000 0.0000
vt 0.0000 0.0000 0.0000
vt 1.0000 0.0000 0.0000
vt 0.0000 1.0000 0.0000
vt 1.0000 1.0000 0.0000
vt 0.7500 0.4413 1.0000
vt 0.8056 0.4397 1.0000
vt 0.8056 0.2466 1.0000
vt 0.7500 0.2450 1.0000
vt 0.8611 0.4351 1.0000
vt 0.8611 0.2512 1.0000
vt 0.9167 0.4281 1.0000
vt 0.9167 0.2582 1.0000
vt 0.9722 0.4195 1.0000
vt 0.9722 0.2668 1.0000
vt -0.0278 0.4195 1.0000
vt 0.0278 0.4103 1.0000
vt 0.0278 0.2760 1.0000
vt -0.0278 0.2668 1.0000
vt 0.0833 0.4017 1.0000
vt 0.0833 0.2846 1.0000
vt 0.1389 0.3947 1.0000
vt 0.1389 0.2917 1.0000
vt 0.1944 0.3901 1.0000
vt 0.1944 0.2962 1.0000
vt 0.2500 0.3885 1.0000
vt 0.2500 0.2978 1.0000
vt 0.3056 0.3901 1.0000
vt 0.3056 0.2962 1.0000
vt 0.3611 0.3947 1.0000
vt 0.3611 0.2917 1.0000
vt 0.4167 0.4017 1.0000
vt 0.4167 0.2846 1.0000
vt 0.4722 0.4103 1.0000
vt 0.4722 0.2760 1.0000
vt 0.5278 0.4195 1.0000
vt 0.5278 0.2668 1.0000
vt 0.5833 0.4281 1.0000
vt 0.5833 0.2582 1.0000
vt 0.6389 0.4351 1.0000
vt 0.6389 0.2512 1.0000
vt 0.6944 0.4397 1.0000
vt 0.6944 0.2466 1.0000
vt 0.5165 0.0956 0.0000
vt 0.4593 0.1102 0.0000
vt 0.4090 0.1525 0.0000
vt 0.3717 0.2173 0.0000
vt 0.3518 0.2967 0.0000
vt 0.3518 0.3812 0.0000
vt 0.3717 0.4606 0.0000
vt 0.4090 0.5254 0.0000
vt 0.4593 0.5676 0.0000
vt 0.5165 0.5823 0.0000
vt 0.5737 0.5676 0.0000
vt 0.6240 0.5254 0.0000
vt 0.5737 0.1102 0.0000
vt 0.6240 0.1525 0.0000
vt 0.6614 0.2173 0.0000
vt 0.6812 0.2967 0.0000
vt 0.6812 0.3812 0.0000
vt 0.6614 0.4606 0.0000
vt 0.4835 0.0956 0.0000
vt 0.5407 0.1102 0.0000
vt 0.5910 0.1525 0.0000
vt 0.6283 0.2173 0.0000
vt 0.6482 0.2967 0.0000
vt 0.6482 0.3812 0.0000
vt 0.6283 0.4606 0.0000
vt 0.5910 0.5254 0.0000
vt 0.5407 0.5676 0.0000
vt 0.4263 0.1102 0.0000
vt 0.3760 0.1525 0.0000
vt 0.3386 0.2173 0.0000
vt 0.3188 0.2967 0.0000
vt 0.3188 0.3812 0.0000
vt 0.3386 0.4606 0.0000
vt 0.3760 0.5254 0.0000
vt 0.4263 0.5676 0.0000
vt 0.4835 0.5823 0.0000
# 79 texture coords

g Cylinder006
usemtl wire_063127255
s 1
f 1/1/1 2/2/2 3/3/2 
f 1/1/1 4/2/3 5/3/3 
s 4
f 2/4/4 5/2/4 4/3/4 
f 4/3/4 3/5/4 2/4/4 
s 1
f 6/6/5 7/7/6 8/8/6 
f 8/8/6 9/9/5 6/6/5 
f 7/7/6 10/10/7 11/11/7 
f 11/11/7 8/8/6 7/7/6 
f 10/10/7 12/12/8 13/13/8 
f 13/13/8 11/11/7 10/10/7 
f 12/12/8 14/14/9 15/15/9 
f 15/15/9 13/13/8 12/12/8 
f 14/16/9 16/17/10 17/18/10 
f 17/18/10 15/19/9 14/16/9 
f 16/17/10 18/20/11 19/21/11 
f 19/21/11 17/18/10 16/17/10 
f 18/20/11 20/22/12 21/23/12 
f 21/23/12 19/21/11 18/20/11 
f 20/22/12 22/24/13 23/25/13 
f 23/25/13 21/23/12 20/22/12 
f 22/24/13 24/26/14 25/27/4 
f 25/27/4 23/25/13 22/24/13 
f 25/27/4 24/26/14 26/28/15 
f 26/28/15 27/29/15 25/27/4 
f 27/29/15 26/28/15 28/30/16 
f 28/30/16 29/31/16 27/29/15 
f 29/31/16 28/30/16 30/32/17 
f 30/32/17 31/33/17 29/31/16 
f 32/34/18 33/35/18 31/33/17 
f 31/33/17 30/32/17 32/34/18 
f 33/35/18 32/34/18 34/36/19 
f 34/36/19 35/37/19 33/35/18 
f 35/37/19 34/36/19 36/38/20 
f 36/38/20 37/39/20 35/37/19 
f 37/39/20 36/38/20 38/40/21 
f 38/40/21 39/41/21 37/39/20 
f 40/42/22 41/43/22 39/41/21 
f 39/41/21 38/40/21 40/42/22 
f 41/43/22 40/42/22 6/6/5 
f 6/6/5 9/9/5 41/43/22 
s 2
f 3/2/23 4/3/24 6/44/24 
f 3/2/23 6/44/24 40/45/23 
f 3/2/23 40/45/23 38/46/23 
f 3/2/23 38/46/23 36/47/23 
f 3/2/23 36/47/23 34/48/24 
f 3/2/23 34/48/24 32/49/24 
f 3/2/23 32/49/24 30/50/23 
f 3/2/23 30/50/23 28/51/23 
f 1/1/1 3/2/23 28/51/23 
f 1/1/1 28/51/23 26/52/24 
f 1/1/1 26/52/24 24/53/23 
f 1/1/1 24/53/23 22/54/23 
f 1/1/1 22/54/23 20/55/24 
f 7/56/24 6/44/24 4/3/24 
f 10/57/24 7/56/24 4/3/24 
f 12/58/23 10/57/24 4/3/24 
f 14/59/23 12/58/23 4/3/24 
f 16/60/24 14/59/23 4/3/24 
f 18/61/23 16/60/24 4/3/24 
f 20/55/24 18/61/23 4/3/24 
f 1/1/1 20/55/24 4/3/24 
f 9/62/25 5/2/25 2/3/26 
f 41/63/26 9/62/25 2/3/26 
f 39/64/26 41/63/26 2/3/26 
f 37/65/25 39/64/26 2/3/26 
f 35/66/25 37/65/25 2/3/26 
f 33/67/26 35/66/25 2/3/26 
f 31/68/25 33/67/26 2/3/26 
f 29/69/25 31/68/25 2/3/26 
f 29/69/25 2/3/26 1/1/1 
f 27/70/25 29/69/25 1/1/1 
f 5/2/25 9/62/25 8/71/25 
f 5/2/25 8/71/25 11/72/25 
f 5/2/25 11/72/25 13/73/25 
f 5/2/25 13/73/25 15/74/26 
f 5/2/25 15/74/26 17/75/25 
f 5/2/25 17/75/25 19/76/26 
f 5/2/25 19/76/26 21/77/25 
f 1/1/1 5/2/25 21/77/25 
f 1/1/1 21/77/25 23/78/26 
f 1/1/1 23/78/26 25/79/26 
f 27/70/25 1/1/1 25/79/26 
# 82 faces

